<svg width="100%" height="180" viewBox="0 0 600 180" fill="none" xmlns="http://www.w3.org/2000/svg">
  <rect width="600" height="180" fill="#101820"/>
  <!-- Matrix rain -->
  <g font-family="Fira Mono, monospace" font-size="14" fill="#39FF14" opacity="0.25">
    <text x="15" y="40">0110110</text>
    <text x="80" y="90">1101001</text>
    <text x="150" y="60">1001101</text>
    <text x="200" y="130">0111001</text>
    <text x="260" y="40">1001001</text>
    <text x="350" y="80">1110101</text>
    <text x="430" y="60">1011001</text>
    <text x="510" y="120">0110110</text>
  </g>
  <!-- Hacker face (hoodie) -->
  <ellipse cx="120" cy="100" rx="40" ry="50" fill="#222" stroke="#39FF14" stroke-width="3"/>
  <ellipse cx="120" cy="110" rx="18" ry="25" fill="#101820" stroke="#39FF14" stroke-width="2"/>
  <ellipse cx="110" cy="110" rx="4" ry="7" fill="#39FF14"/>
  <ellipse cx="130" cy="110" rx="4" ry="7" fill="#39FF14"/>
  <rect x="105" y="130" width="30" height="6" rx="3" fill="#39FF14" opacity="0.85"/>
  <!-- Bug icon -->
  <g>
    <ellipse cx="500" cy="100" rx="16" ry="20" fill="#F44336" stroke="#fff" stroke-width="2"/>
    <ellipse cx="500" cy="93" rx="10" ry="7" fill="#fff"/>
    <line x1="500" y1="80" x2="500" y2="67" stroke="#fff" stroke-width="2"/>
    <line x1="484" y1="93" x2="468" y2="80" stroke="#fff" stroke-width="2"/>
    <line x1="516" y1="93" x2="532" y2="80" stroke="#fff" stroke-width="2"/>
    <line x1="484" y1="107" x2="468" y2="120" stroke="#fff" stroke-width="2"/>
    <line x1="516" y1="107" x2="532" y2="120" stroke="#fff" stroke-width="2"/>
  </g>
  <!-- Text -->
  <text x="200" y="90" fill="#39FF14" font-family="Fira Mono, monospace" font-size="38" font-weight="bold">Hacker</text>
  <text x="200" y="135" fill="#F44336" font-family="Fira Mono, monospace" font-size="35" font-weight="bold">Bug Bounty</text>
  <text x="200" y="160" fill="#fff" font-family="Fira Mono, monospace" font-size="20">sudo-hope0529</text>
</svg>